<svg width="106" height="55" viewBox="0 0 106 55" fill="none" xmlns="http://www.w3.org/2000/svg">
<path d="M49.1021 3.67209C50.0471 2.16745 51.3475 1.14436 52.7125 0.43453C53.0047 0.291231 53.3184 0.419532 53.5879 0.589492C54.2862 1.02772 55.0035 1.44262 55.6132 2.08081C57.2868 3.70542 58.3596 6.22315 58.8428 8.85252C59.1629 11.3319 59.0199 13.9463 58.2811 16.2824C57.4981 19.0568 55.9231 21.2496 54.3241 23.2558C55.8573 25.0687 57.531 26.6599 59.0781 28.4528C61.6221 26.5016 64.285 24.7137 67.1654 23.814C69.4589 23.0558 71.8903 23.1608 74.1686 23.9523C75.8764 24.6071 77.5007 25.7602 78.7341 27.4664C79.8511 29.1177 80.6253 31.1305 81.1174 33.235C82.5267 32.6785 83.9941 32.3736 85.4679 32.4119C87.1554 32.3869 88.929 32.8185 90.2876 34.2165C90.8366 34.7697 91.225 35.5328 91.6007 36.2843C93.707 35.1213 95.9663 34.4981 98.2383 34.2665C100.613 34.0598 102.958 34.703 105.326 34.7364C105.977 34.8613 106.227 36.076 105.759 36.6576C105.355 37.2374 104.71 37.0091 104.188 37.0058C102.372 36.9125 100.574 36.4426 98.7532 36.5492C96.5078 36.7525 94.2687 37.3424 92.189 38.4921C92.7683 42.0663 90.6861 45.8287 87.9815 46.3886C87.5008 46.4052 86.9581 46.5535 86.5292 46.1853C85.9802 45.7554 85.6058 44.9372 85.6197 44.0891C85.5286 42.5445 86.2383 41.1798 87.0061 40.1084C87.8588 38.9353 88.9302 38.0956 90.0005 37.3141C89.5008 36.161 88.6102 35.4112 87.65 35.0846C85.6096 34.3781 83.4539 34.7597 81.4603 35.5395C81.6728 37.8939 81.3401 40.31 80.533 42.4245C79.6234 44.6223 78.2446 46.5719 76.4811 47.5833C75.0402 48.4681 73.4109 48.8347 71.8321 48.5281C71.068 48.3198 70.2761 47.8782 69.8068 47.0218C69.3463 46.197 69.3919 45.0856 69.588 44.1458C70.094 42.2379 71.0984 40.6466 72.1775 39.2469C74.2698 36.8292 76.8138 35.2062 79.4134 33.9665C78.8619 31.5554 77.8967 29.1227 76.2319 27.7497C74.385 26.1067 72.0978 25.5685 69.9042 25.6169C66.5355 25.9534 63.3982 27.8713 60.5165 30.0825C62.0864 31.942 63.5361 34.0249 64.5709 36.4643C65.3995 38.3622 65.9485 40.5316 65.8814 42.7394C65.8005 45.2289 65.2312 47.7416 64.0623 49.7278C62.8239 51.9123 60.9111 53.2719 58.9415 53.9668C56.9655 54.51 54.8517 54.3183 52.9984 53.2336C51.1742 54.3117 49.0932 54.4983 47.1438 53.9901C45.2577 53.3552 43.436 52.0972 42.171 50.1127C40.7517 47.8982 40.0964 44.9556 40.1229 42.0863C40.1837 39.2203 41.2324 36.5909 42.4885 34.3214C43.3563 32.7585 44.4152 31.4055 45.4803 30.0825C44.4797 29.2393 43.3994 28.5812 42.3304 27.903C40.3342 26.7083 38.2102 25.7885 36.0091 25.6119C33.3841 25.5602 30.5922 26.4367 28.6668 28.9211C27.6814 30.3541 26.9945 32.1203 26.5795 33.9699C28.7997 35.0163 30.9679 36.3443 32.8617 38.2155C33.9812 39.2869 34.9262 40.6583 35.6877 42.1762C36.2697 43.366 36.7415 44.7939 36.486 46.2336C36.2051 47.5366 35.1982 48.2548 34.2532 48.5047C32.2507 48.9463 30.1735 48.2365 28.4644 46.8385C26.324 44.9472 24.8414 41.808 24.5492 38.4288C24.4619 37.469 24.4745 36.4976 24.5441 35.5362C22.5289 34.7563 20.348 34.3664 18.2923 35.1079C17.355 35.4395 16.496 36.191 16.0064 37.3157C17.5485 38.4305 19.1311 39.7551 19.9862 41.858C20.3518 42.6711 20.4568 43.6492 20.348 44.5757C20.2278 45.3871 19.7598 46.1003 19.1677 46.3752C18.4543 46.4986 17.7092 46.4136 17.0425 46.042C15.6573 45.2755 14.4947 43.7592 14.0115 41.8696C13.6636 40.8016 13.699 39.6052 13.8141 38.4788C11.7724 37.3774 9.59148 36.7759 7.39539 36.5576C5.1993 36.401 3.02851 37.0841 0.834956 37.0308C0.130335 37.0075 -0.273209 35.7694 0.213827 35.0913C0.512374 34.5781 1.04242 34.743 1.46621 34.7014C3.3258 34.6164 5.16768 34.1448 7.03359 34.2465C9.55606 34.3231 12.076 35.013 14.4062 36.291C14.9046 35.2079 15.5472 34.1931 16.4176 33.61C17.823 32.5469 19.4891 32.3602 21.0779 32.4202C22.3683 32.4352 23.6472 32.7535 24.8819 33.2367C25.2538 31.7337 25.7181 30.2541 26.4075 28.9527C27.5865 26.465 29.5979 24.8604 31.6865 24.0056C33.3297 23.409 35.0527 23.1808 36.7516 23.3541C40.4101 23.8473 43.7801 26.0251 46.9098 28.4478C48.4746 26.6783 50.1445 25.0753 51.6752 23.2541C50.2963 21.5012 48.9187 19.6599 48.0825 17.3555C47.3918 15.5143 46.9895 13.4798 47.006 11.4202C46.9161 8.60591 47.7523 5.82491 49.1021 3.67209ZM50.5164 5.09009C49.5006 6.67638 48.8453 8.69423 48.7618 10.7754C48.6657 13.678 49.4867 16.5674 50.8946 18.7852C51.5322 19.8449 52.2925 20.7563 53.0047 21.7261C53.8207 20.6097 54.6961 19.5616 55.3956 18.3103C56.8555 15.7742 57.6006 12.4183 57.0844 9.26743C56.7365 7.4062 56.018 5.62163 54.92 4.34193C54.3596 3.66876 53.6714 3.23053 52.9946 2.8023C52.0737 3.3605 51.178 4.05533 50.5164 5.09009ZM48.4304 29.8042C50.128 31.4338 51.6435 33.3767 52.9997 35.4862C54.3596 33.3733 55.8827 31.4405 57.574 29.7942C56.0433 28.1463 54.4633 26.5766 53.0035 24.8187C51.5436 26.5816 49.9535 28.1413 48.4304 29.8042ZM47.0553 31.3805C46.0572 32.5352 45.1046 33.7666 44.2621 35.1213C43.0527 37.1841 41.9547 39.5635 41.8851 42.2412C41.9003 44.5274 42.4228 46.8701 43.5486 48.6414C44.5037 50.131 45.8712 51.0458 47.2653 51.6157C48.5063 52.0789 49.8067 51.9889 51.0616 51.6873C50.0774 50.6642 49.4525 49.0729 49.412 47.42C49.1704 43.7792 50.2533 40.2084 51.8776 37.3224C50.4316 35.1296 48.8769 33.0351 47.0553 31.3805ZM54.1255 37.3191C55.4918 39.7701 56.4962 42.6661 56.6088 45.7387C56.6455 47.1367 56.6214 48.623 56.0863 49.8744C55.827 50.5859 55.4019 51.1524 54.9655 51.6756C56.8896 52.2655 58.9554 51.8806 60.6569 50.5509C62.4165 49.3379 63.5943 46.9601 63.9434 44.4174C64.3811 42.1496 63.9611 39.7335 63.0769 37.7473C62.0661 35.2612 60.5392 33.2384 58.9579 31.3738C57.1312 33.0268 55.5765 35.1296 54.1255 37.3191ZM75.421 39.012C73.7588 40.3017 72.2622 42.0946 71.4185 44.4124C71.2806 44.8623 71.0212 45.5454 71.4387 45.8787C72.1572 46.4269 73.0377 46.3586 73.8321 46.2219C75.4109 45.8787 76.9504 44.8806 77.9688 43.221C79.2591 41.3531 79.841 38.7704 79.7664 36.2727C78.2737 37.0541 76.7822 37.8723 75.421 39.012ZM26.257 36.3026C26.1355 38.802 26.7756 41.3631 28.0444 43.236C29.2943 45.2272 31.2703 46.3169 33.2146 46.3219C33.7358 46.2719 34.3215 46.2003 34.7213 45.7071C34.8933 45.3472 34.7238 44.8973 34.6327 44.5357C34.1583 43.156 33.4044 41.9713 32.5846 40.9215C30.7415 38.832 28.5226 37.414 26.257 36.3026ZM51.2577 44.734C51.1122 46.0453 51.0262 47.4666 51.4614 48.7047C51.7726 49.5861 52.4026 50.1393 53.0009 50.6526C53.8055 50.016 54.6138 49.1296 54.7669 47.8366C55.1477 44.8073 54.2697 41.7513 52.9971 39.2686C52.1673 40.9265 51.5094 42.7644 51.2577 44.734ZM15.4739 39.5835C15.465 41.8746 16.9135 43.9725 18.6478 44.1674C18.6099 43.6576 18.5403 43.1377 18.3138 42.7111C17.6295 41.3181 16.539 40.405 15.4739 39.5835ZM88.6519 41.2765C88.0156 42.0213 87.354 42.9711 87.3717 44.1674C89.101 43.9542 90.5242 41.878 90.5394 39.5952C89.8714 40.0751 89.2301 40.6249 88.6519 41.2765Z" fill="#C5C5C5"/>
</svg>
